<svg width="22" height="22" viewBox="0 0 22 22" fill="none" xmlns="http://www.w3.org/2000/svg">
<path d="M8.09102 6.3207C8.41328 6.13594 8.81289 6.10586 9.13086 6.33789L15.3184 10.1191C15.6234 10.3082 15.8125 10.6391 15.8125 11C15.8125 11.3609 15.6234 11.6918 15.3184 11.8809L9.13086 15.6621C8.81289 15.8555 8.41328 15.8641 8.09102 15.6793C7.76445 15.4988 7.5625 15.1551 7.5625 14.7812V7.18008C7.5625 6.84492 7.76445 6.50117 8.09102 6.3207ZM22 11C22 17.0758 17.0758 22 11 22C4.92422 22 0 17.0758 0 11C0 4.92422 4.92422 0 11 0C17.0758 0 22 4.92422 22 11ZM11 2.0625C6.06289 2.0625 2.0625 6.06289 2.0625 11C2.0625 15.9371 6.06289 19.9375 11 19.9375C15.9371 19.9375 19.9375 15.9371 19.9375 11C19.9375 6.06289 15.9371 2.0625 11 2.0625Z" fill="#F8F8F8"/>
</svg>
