<svg width="28" height="24" viewBox="0 0 28 24" fill="none" xmlns="http://www.w3.org/2000/svg">
<g clip-path="url(#clip0_1_84)">
<path d="M16.154 0C14.9509 0 13.5446 0.944197 13.3326 5.16071C13.5111 5.15625 13.6875 5.14286 13.8683 5.14286C14.0692 5.14286 14.2768 5.15402 14.4754 5.16071C14.6116 2.62723 15.2143 1.14286 16.154 1.14286C16.5558 1.14286 16.7835 1.36161 17.2076 1.82143C17.7031 2.35937 18.3504 3.05804 19.6183 3.32143C19.5982 3.17187 19.5826 3.01116 19.5826 2.85714C19.5826 2.61607 19.6071 2.38839 19.654 2.16071C18.8683 1.94643 18.4531 1.4933 18.0469 1.05357C17.5937 0.5625 17.0736 0 16.154 0ZM23.0111 0.571429C21.75 0.571429 20.7254 1.59821 20.7254 2.85714C20.7254 4.11607 21.75 5.14286 23.0111 5.14286C24.2723 5.14286 25.2969 4.11607 25.2969 2.85714C25.2969 1.59821 24.2723 0.571429 23.0111 0.571429ZM13.8683 6.28571C6.93525 6.28571 1.29686 9.81696 1.29686 14.8571C1.29686 19.8973 6.93525 24 13.8683 24C20.8013 24 26.4397 19.8973 26.4397 14.8571C26.4397 9.81696 20.8013 6.28571 13.8683 6.28571ZM3.86829 6.82143C3.03347 6.82143 2.24105 7.16295 1.63614 7.76786C0.65177 8.75223 0.448645 10.1674 1.01114 11.3393C1.87498 9.66741 3.36159 8.24107 5.279 7.17857C4.84373 6.95759 4.36159 6.82143 3.86829 6.82143ZM23.8683 6.82143C23.375 6.82143 22.8928 6.95759 22.4576 7.17857C24.375 8.24107 25.8616 9.66741 26.7254 11.3393C27.2879 10.1674 27.0848 8.75223 26.1004 7.76786C25.4955 7.16295 24.7031 6.82143 23.8683 6.82143ZM9.29686 11.4286C10.2433 11.4286 11.0111 12.1964 11.0111 13.1429C11.0111 14.0893 10.2433 14.8571 9.29686 14.8571C8.35043 14.8571 7.58257 14.0893 7.58257 13.1429C7.58257 12.1964 8.35043 11.4286 9.29686 11.4286ZM18.4397 11.4286C19.3861 11.4286 20.154 12.1964 20.154 13.1429C20.154 14.0893 19.3861 14.8571 18.4397 14.8571C17.4933 14.8571 16.7254 14.0893 16.7254 13.1429C16.7254 12.1964 17.4933 11.4286 18.4397 11.4286ZM8.76114 17.7143C8.904 17.7388 9.04463 17.8192 9.13614 17.9464C9.19641 18.0313 10.5357 19.8214 13.8683 19.8214C17.2455 19.8214 18.587 17.9821 18.6004 17.9643C18.7812 17.7076 19.1451 17.6384 19.404 17.8214C19.6607 18.0022 19.7098 18.3482 19.529 18.6071C19.462 18.7031 17.8326 20.9643 13.8683 20.9643C9.90177 20.9643 8.27454 18.7031 8.20757 18.6071C8.02677 18.3482 8.07364 18.0022 8.33257 17.8214C8.46204 17.7299 8.61829 17.6897 8.76114 17.7143Z" fill="white"/>
</g>
<defs>
<clipPath id="clip0_1_84">
<rect width="28" height="24" fill="white"/>
</clipPath>
</defs>
</svg>
