<svg width="28" height="24" viewBox="0 0 28 24" fill="none" xmlns="http://www.w3.org/2000/svg">
<g clip-path="url(#clip0_1_82)">
<path d="M26.7423 0.32993C26.2923 -0.0516714 25.5855 -0.106271 24.8547 0.187129H24.8535C24.0848 0.49553 3.09679 9.49796 2.24239 9.86576C2.08699 9.91976 0.729782 10.4262 0.869582 11.5542C0.994383 12.5712 2.08519 12.9924 2.21839 13.041L7.5542 14.868C7.9082 16.0464 9.21321 20.394 9.50181 21.3228C9.68181 21.9018 9.97521 22.6626 10.4894 22.8192C10.9406 22.9932 11.3894 22.8342 11.6798 22.6062L14.942 19.5804L20.2082 23.6874L20.3336 23.7624C20.6912 23.9208 21.0338 24 21.3608 24C21.6134 24 21.8558 23.9526 22.0874 23.8578C22.8764 23.5338 23.192 22.782 23.225 22.6968L27.1587 2.25054C27.3987 1.15853 27.0651 0.602931 26.7423 0.32993ZM12.26 15.5988L10.46 20.3988L8.66001 14.3988L22.46 4.19874L12.26 15.5988Z" fill="white"/>
</g>
<defs>
<clipPath id="clip0_1_82">
<rect width="28" height="24" fill="white"/>
</clipPath>
</defs>
</svg>
