<svg width="83" height="15" viewBox="0 0 83 15" fill="none" xmlns="http://www.w3.org/2000/svg">
<path d="M82.1405 7.80276C82.3348 7.6066 82.3334 7.29002 82.1372 7.09566L78.9405 3.92845C78.7444 3.73409 78.4278 3.73556 78.2334 3.93172C78.0391 4.12789 78.0405 4.44447 78.2367 4.63882L81.0782 7.45412L78.2629 10.2956C78.0685 10.4918 78.07 10.8084 78.2662 11.0027C78.4623 11.1971 78.7789 11.1956 78.9733 10.9994L82.1405 7.80276ZM0.507137 8.32714L4.57116 8.30833L4.56653 7.30834L0.502507 7.32715L0.507137 8.32714ZM12.6992 8.2707L20.8273 8.23307L20.8226 7.23308L12.6946 7.27071L12.6992 8.2707ZM28.9553 8.19544L37.0834 8.15781L37.0787 7.15782L28.9507 7.19545L28.9553 8.19544ZM45.2114 8.12018L53.3394 8.08255L53.3348 7.08256L45.2068 7.12019L45.2114 8.12018ZM61.4675 8.04492L69.5955 8.00729L69.5909 7.0073L61.4629 7.04493L61.4675 8.04492ZM77.7236 7.96966L81.7876 7.95084L81.783 6.95086L77.719 6.96967L77.7236 7.96966ZM82.4957 8.15468C82.8844 7.76235 82.8815 7.12919 82.4891 6.74048L76.0958 0.406047C75.7034 0.0173347 75.0703 0.020266 74.6816 0.412594C74.2929 0.804922 74.2958 1.43808 74.6881 1.82679L80.3711 7.4574L74.7405 13.1404C74.3518 13.5327 74.3547 14.1659 74.747 14.5546C75.1394 14.9433 75.7725 14.9404 76.1612 14.548L82.4957 8.15468ZM0.509451 8.82714L4.57347 8.80832L4.56422 6.80834L0.500192 6.82716L0.509451 8.82714ZM12.7015 8.77069L20.8296 8.73306L20.8203 6.73308L12.6923 6.77071L12.7015 8.77069ZM28.9576 8.69543L37.0857 8.6578L37.0764 6.65782L28.9484 6.69545L28.9576 8.69543ZM45.2137 8.62017L53.3418 8.58254L53.3325 6.58257L45.2045 6.62019L45.2137 8.62017ZM61.4698 8.54491L69.5979 8.50728L69.5886 6.50731L61.4606 6.54494L61.4698 8.54491ZM77.7259 8.46965L81.7899 8.45084L81.7807 6.45086L77.7166 6.46968L77.7259 8.46965Z" fill="#8D8D8D"/>
</svg>
