<svg width="43" height="24" viewBox="0 0 43 24" fill="none" xmlns="http://www.w3.org/2000/svg">
<g clip-path="url(#clip0_1_94)">
<path d="M12.2404 0C9.05782 0 6.00557 1.26428 3.75514 3.51472C1.5047 5.76515 0.240417 8.8174 0.240417 12C0.240417 15.1826 1.5047 18.2348 3.75514 20.4853C6.00557 22.7357 9.05782 24 12.2404 24C15.423 24 18.4753 22.7357 20.7257 20.4853C22.9761 18.2348 24.2404 15.1826 24.2404 12C24.2404 8.8174 22.9761 5.76515 20.7257 3.51472C18.4753 1.26428 15.423 0 12.2404 0ZM31.1635 0.923077C27.8497 0.923077 25.1635 5.88277 25.1635 12C25.1635 13.1474 25.2576 14.2532 25.433 15.2935C25.6666 16.6809 26.0441 17.9511 26.5333 19.0458C26.778 19.5932 27.0503 20.0963 27.3466 20.5477C27.9392 21.4505 28.6278 22.1474 29.3792 22.5794C29.9432 22.9025 30.5423 23.0769 31.1635 23.0769C31.7847 23.0769 32.3838 22.9025 32.9478 22.5794C33.6992 22.1474 34.3878 21.4505 34.9804 20.5477C35.2767 20.0963 35.549 19.5932 35.7936 19.0458C36.2829 17.952 36.6604 16.6809 36.894 15.2935C37.0693 14.2532 37.1635 13.1474 37.1635 12C37.1635 5.88277 34.4773 0.923077 31.1635 0.923077ZM40.3943 1.84615C40.1552 1.84615 39.9244 2.00585 39.7084 2.30308C39.5635 2.50062 39.425 2.75908 39.2949 3.072C39.2293 3.228 39.1657 3.39785 39.1047 3.58062C38.982 3.94523 38.8675 4.36154 38.7632 4.82031C38.5546 5.73877 38.3856 6.83354 38.2684 8.04831C38.2103 8.65569 38.165 9.29354 38.1336 9.95446C38.1023 10.6145 38.0866 11.2994 38.0866 12C38.0866 12.7006 38.1023 13.3855 38.1336 14.0465C38.1641 14.7074 38.2093 15.3452 38.2684 15.9526C38.3856 17.1674 38.5546 18.2612 38.7632 19.1806C38.8675 19.6403 38.982 20.0557 39.1047 20.4203C39.1657 20.6031 39.2293 20.7729 39.2949 20.9289C39.426 21.2418 39.5644 21.5003 39.7084 21.6978C39.9244 21.9942 40.1552 22.1538 40.3943 22.1538C41.669 22.1538 42.702 17.6077 42.702 12C42.702 6.39231 41.669 1.84615 40.3943 1.84615Z" fill="white"/>
</g>
<defs>
<clipPath id="clip0_1_94">
<rect width="43" height="24" fill="white"/>
</clipPath>
</defs>
</svg>
