<svg width="33" height="24" viewBox="0 0 33 24" fill="none" xmlns="http://www.w3.org/2000/svg">
<g clip-path="url(#clip0_1_92)">
<path d="M28.0985 2.66148C25.3295 0.400519 20.9491 0.0172582 20.7616 0.00347127C20.4708 -0.021344 20.1937 0.144093 20.0741 0.417063C20.0632 0.433606 19.9681 0.656945 19.8621 1.00436C21.6937 1.31869 23.9437 1.95011 25.979 3.23224C26.3051 3.43627 26.4056 3.87192 26.2045 4.2028C26.0714 4.42062 25.8458 4.53918 25.6121 4.53918C25.4871 4.53918 25.3594 4.50334 25.2453 4.43165C21.7453 2.22859 17.3757 2.1183 16.5333 2.1183C15.6909 2.1183 11.3187 2.22859 7.82137 4.43165C7.49528 4.63844 7.06593 4.53643 6.86485 4.20555C6.66104 3.87192 6.76159 3.43903 7.08767 3.23224C9.123 1.95286 11.373 1.31869 13.2045 1.00712C13.0985 0.656945 13.0034 0.436364 12.9953 0.417063C12.873 0.144093 12.5985 -0.0268582 12.3051 0.00347127C12.1176 0.0172582 7.73713 0.400519 4.93007 2.69181C3.46539 4.06769 0.533325 12.1079 0.533325 19.059C0.533325 19.183 0.565934 19.3016 0.625717 19.4091C2.64746 23.0157 8.16648 23.9586 9.42463 24C9.43006 24 9.43822 24 9.44637 24C9.6692 24 9.87843 23.8925 10.0089 23.7105L11.2806 21.9348C7.84854 21.0359 6.09583 19.5084 5.99528 19.4174C5.70724 19.161 5.68006 18.7143 5.9355 18.422C6.18822 18.1298 6.62843 18.1022 6.91648 18.3586C6.95724 18.3972 10.1855 21.1766 16.5333 21.1766C22.892 21.1766 26.1203 18.3862 26.1529 18.3586C26.4409 18.105 26.8784 18.1298 27.1339 18.4248C27.3866 18.7171 27.3594 19.161 27.0714 19.4174C26.9708 19.5084 25.2181 21.0359 21.786 21.9348L23.0578 23.7105C23.1882 23.8925 23.3975 24 23.6203 24C23.6284 24 23.6366 24 23.642 24C24.9002 23.9586 30.4192 23.0157 32.4409 19.4091C32.5007 19.3016 32.5333 19.183 32.5333 19.059C32.5333 12.1079 29.6013 4.06769 28.0985 2.66148ZM12.0116 16.2355C10.6665 16.2355 9.5768 14.9727 9.5768 13.4121C9.5768 11.8515 10.6665 10.5886 12.0116 10.5886C13.3567 10.5886 14.4464 11.8515 14.4464 13.4121C14.4464 14.9727 13.3567 16.2355 12.0116 16.2355ZM21.0551 16.2355C19.71 16.2355 18.6203 14.9727 18.6203 13.4121C18.6203 11.8515 19.71 10.5886 21.0551 10.5886C22.4002 10.5886 23.4898 11.8515 23.4898 13.4121C23.4898 14.9727 22.4002 16.2355 21.0551 16.2355Z" fill="white"/>
</g>
<defs>
<clipPath id="clip0_1_92">
<rect width="33" height="24" fill="white"/>
</clipPath>
</defs>
</svg>
