<svg width="15" height="11" viewBox="0 0 15 11" fill="none" xmlns="http://www.w3.org/2000/svg">
<path fill-rule="evenodd" clip-rule="evenodd" d="M1.09375 0C0.803669 0 0.52547 0.115234 0.320352 0.320352C0.115234 0.52547 0 0.80367 0 1.09375L0 9.84375C0 10.4475 0.49 10.9375 1.09375 10.9375H13.9062C14.1963 10.9375 14.4745 10.8223 14.6796 10.6171C14.8848 10.412 15 10.1338 15 9.84375V1.09375C15 0.80367 14.8848 0.52547 14.6796 0.320352C14.4745 0.115234 14.1963 0 13.9062 0H1.09375ZM0.9375 1.09375C0.9375 1.05231 0.953962 1.01257 0.983265 0.983265C1.01257 0.953962 1.05231 0.9375 1.09375 0.9375H13.9062C13.9477 0.9375 13.9874 0.953962 14.0167 0.983265C14.046 1.01257 14.0625 1.05231 14.0625 1.09375V1.62625L7.5875 6.00125C7.56166 6.01872 7.53119 6.02805 7.5 6.02805C7.46881 6.02805 7.43834 6.01872 7.4125 6.00125L0.9375 1.62625V1.09375ZM0.9375 2.7575V9.84375C0.9375 9.93 1.0075 10 1.09375 10H13.9062C13.9477 10 13.9874 9.98354 14.0167 9.95424C14.046 9.92493 14.0625 9.88519 14.0625 9.84375V2.7575L8.1125 6.77813C7.7425 7.02813 7.2575 7.02813 6.8875 6.77813L0.9375 2.7575Z" fill="white"/>
</svg>
