<svg width="27" height="26" viewBox="0 0 27 26" fill="none" xmlns="http://www.w3.org/2000/svg">
<g clip-path="url(#clip0_1826_15)">
<path fill-rule="evenodd" clip-rule="evenodd" d="M26.228 13C26.228 13.5523 25.7803 14 25.228 14H1.5C0.947715 14 0.5 13.5523 0.5 13C0.5 12.4477 0.947716 12 1.5 12H25.228C25.7803 12 26.228 12.4477 26.228 13Z" fill="white"/>
<path fill-rule="evenodd" clip-rule="evenodd" d="M13.5 26C12.9477 26 12.5 25.5523 12.5 25L12.5 1C12.5 0.447715 12.9477 0 13.5 0C14.0523 0 14.5 0.447716 14.5 1L14.5 25C14.5 25.5523 14.0523 26 13.5 26Z" fill="white"/>
</g>
<defs>
<clipPath id="clip0_1826_15">
<rect width="26" height="26" fill="white" transform="translate(0.5)"/>
</clipPath>
</defs>
</svg>
