<svg width="33" height="24" viewBox="0 0 33 24" fill="none" xmlns="http://www.w3.org/2000/svg">
<g clip-path="url(#clip0_1_78)">
<path d="M31.9572 4.125C31.6583 2.47559 30.2345 1.27441 28.5822 0.899414C26.1095 0.375 21.5333 0 16.5822 0C11.6339 0 6.9845 0.375 4.50891 0.899414C2.8595 1.27441 1.43274 2.39941 1.13391 4.125C0.832154 6 0.533325 8.625 0.533325 12C0.533325 15.375 0.832154 18 1.20715 19.875C1.50891 21.5244 2.93274 22.7256 4.58215 23.1006C7.20715 23.625 11.7072 24 16.6583 24C21.6095 24 26.1095 23.625 28.7345 23.1006C30.3839 22.7256 31.8077 21.6006 32.1095 19.875C32.4083 18 32.7833 15.2988 32.8595 12C32.7072 8.625 32.3322 6 31.9572 4.125ZM12.5333 17.25V6.75L21.6827 12L12.5333 17.25Z" fill="white"/>
</g>
<defs>
<clipPath id="clip0_1_78">
<rect width="33" height="24" fill="white"/>
</clipPath>
</defs>
</svg>
